<svg xmlns="http://www.w3.org/2000/svg" width="179.9" height="43.7" fill-rule="evenodd" clip-rule="evenodd" image-rendering="optimizeQuality" shape-rendering="geometricPrecision" text-rendering="geometricPrecision" viewBox="0 0 5353 1301">
  <path fill="#248fc3" fill-rule="nonzero" d="M960 597c-95-151-226-282-442-321-3-1-4-1-7-1H270v751h246c341-61 472-350 578-585C1202 200 1293 0 1534 0c242 0 332 200 441 441 107 236 238 530 581 585h1l-118 249c-402-92-558-390-711-728-70-155-128-283-194-283-65 0-123 128-193 283-140 309-312 690-826 747-43 5-332 7-380 7H0V0h135c48 0 337 2 380 7 274 30 451 153 578 308-17 33-32 69-49 105-26 57-53 117-84 177zm583 54c75 0 135 59 135 132 0 72-60 132-135 132-74 0-135-60-135-132 0-73 61-132 135-132z"/>
  <path d="M2929 235h-130c-3 0-5 2-5 5v323c0 2 2 4 5 4h130c93 0 160-74 160-166 0-91-67-166-160-166zm0 316h-117V251h117c84 0 142 68 142 150 0 83-58 150-142 150zm410 0h-161V408h147c3 0 5-2 5-5v-6c0-3-2-5-5-5h-147V251h159c3 0 5-1 5-4v-7c0-3-2-5-5-5h-173c-2 0-4 2-4 5v323c0 2 2 4 4 4h175c4 0 5-2 5-4v-7c0-3-1-5-5-5zm168 16h11c3 0 5-1 6-4l125-322c1-4-1-6-4-6h-9c-3 0-4 1-5 4l-118 307-118-307c-1-3-2-4-5-4h-9c-3 0-5 2-4 6l125 322c1 3 3 4 5 4zm376-16h-161V408h147c3 0 5-2 5-5v-6c0-3-2-5-5-5h-147V251h159c3 0 5-1 5-4v-7c0-3-2-5-5-5h-172c-3 0-5 2-5 5v323c0 2 2 4 5 4h174c4 0 5-2 5-4v-7c0-3-1-5-5-5zm251 0h-160V240c0-3-2-5-5-5h-8c-3 0-5 2-5 5v323c0 2 2 4 5 4h173c3 0 5-2 5-4v-7c0-3-2-5-5-5zm190 22c98 0 176-77 176-172 0-94-78-171-176-171-97 0-175 77-175 171 0 95 78 172 175 172zm0-17c-88 0-157-69-157-155 0-85 69-154 157-154s158 69 158 154c0 86-70 155-158 155zm358-321h-107c-3 0-5 2-5 5v323c0 2 2 4 5 4h9c2 0 4-2 4-4V428h94c55 0 99-43 99-96s-44-97-99-97zm0 177h-94V251h94c45 0 81 37 81 81s-36 80-81 80zm346 139h-161V408h147c3 0 5-2 5-5v-6c0-3-2-5-5-5h-147V251h159c3 0 5-1 5-4v-7c0-3-2-5-5-5h-172c-3 0-5 2-5 5v323c0 2 2 4 5 4h174c4 0 5-2 5-4v-7c0-3-1-5-5-5zm324 10l-122-134c46-8 82-48 82-95 0-53-45-97-99-97h-107c-3 0-5 2-5 5v323c0 2 2 4 5 4h8c3 0 5-2 5-4V428h90l124 136c1 2 3 3 6 3h10c4 0 6-3 3-6zm-233-310h94c44 0 81 37 81 81s-37 80-81 80h-94V251zm-2010 800l-103-309c-2-6-8-10-14-10h-78c-7 0-12 4-14 10l-103 309c-3 9 1 13 10 13h60c7 0 11-3 13-10l13-42h119l13 42c2 7 7 10 14 10h59c9 0 14-4 11-13zm-194-110l38-126 38 126h-76zm372 130c78 0 145-48 164-118 2-7-3-12-11-12h-57c-7 0-11 3-14 9-13 29-45 47-82 47-60 0-99-39-99-99 0-59 39-98 99-98 37 0 69 17 82 46 3 6 7 10 14 10h57c8 0 13-6 11-14-20-69-86-116-164-116-102 0-176 75-176 172 0 98 74 173 176 173zm363 0c78 0 145-48 164-118 2-7-3-12-11-12h-57c-7 0-11 3-14 9-14 29-45 47-82 47-60 0-99-39-99-99 0-59 39-98 99-98 37 0 68 17 82 46 3 6 7 10 14 10h57c8 0 13-6 11-14-20-69-86-116-164-116-102 0-177 75-177 172 0 98 75 173 177 173zm392-80h-114v-59h100c7 0 12-4 12-12v-47c0-8-5-12-12-12h-100v-56h112c8 0 12-4 12-11v-50c0-7-4-12-12-12h-177c-8 0-13 5-13 12v308c0 8 5 12 13 12h179c8 0 12-4 12-12v-49c0-7-4-12-12-12zm236-247v173l-116-177c-4-5-9-8-15-8h-37c-8 0-12 5-12 12v308c0 8 4 12 12 12h54c7 0 12-4 12-12V879l116 178c3 5 9 7 15 7h36c8 0 12-4 12-12V744c0-7-4-12-12-12h-53c-8 0-12 5-12 12zm332-12h-208c-8 0-13 5-13 12v50c0 7 5 11 13 11h65v247c0 8 4 12 12 12h54c7 0 12-4 12-12V805h65c8 0 12-4 12-11v-50c0-7-4-12-12-12z"/>
  <path fill="#248fc3" fill-rule="nonzero" stroke="#000" stroke-width="8.6" d="M2677 71v1159"/>
</svg>
