<svg xmlns="http://www.w3.org/2000/svg" width="18px" height="18px">
  <symbol id="facebook" viewBox="0 0 53 113">
    <path class="facebook-svg" d="M35 113l-21 0 0 -57 -14 0 0 -19 14 0 0 -11c0,-16 4,-26 23,-26l16 0 0 19 -10 0c-7,0 -8,3 -8,8l0 10 18 0 -2 19 -16 0 0 57z"/>
  </symbol>
  <symbol id="twitter" viewBox="0 0 1129 917">
    <path class="twitter-svg" d="M1129 109c-42,18 -86,30 -133,36 48,-29 84,-74 102,-128 -45,26 -95,46 -147,56 -43,-45 -103,-73 -169,-73 -128,0 -232,104 -232,232 0,18 2,35 6,52 -193,-9 -363,-101 -477,-242 -20,35 -32,74 -32,117 0,80 41,151 103,193 -38,-2 -73,-12 -105,-29 0,1 0,2 0,3 0,112 80,205 186,227 -19,5 -40,8 -61,8 -15,0 -29,-2 -43,-4 29,92 115,159 216,160 -79,63 -179,100 -288,100 -18,0 -37,-1 -55,-4 102,66 224,104 355,104 426,0 659,-352 659,-659 0,-10 0,-20 -1,-29 46,-33 85,-74 116,-120z"/>
  </symbol>
  <symbol id="github" viewBox="0 0 583 583">
    <path class="github-svg" d="M535 292c0,-33 -7,-65 -20,-95 -13,-30 -30,-56 -52,-77 -21,-22 -47,-39 -77,-52 -30,-13 -61,-19 -94,-19 -33,0 -65,6 -95,19 -30,13 -56,30 -77,52 -22,21 -39,47 -52,77 -13,30 -19,62 -19,95 0,53 15,100 47,143 31,43 72,73 123,88l0 -64c-14,2 -23,3 -26,3 -28,0 -48,-13 -59,-38 -3,-10 -8,-18 -13,-24 -2,-2 -4,-4 -8,-7 -4,-4 -8,-7 -11,-10 -3,-2 -5,-4 -5,-6 0,-3 4,-4 11,-4 7,0 14,2 19,5 6,4 11,8 15,14 4,5 8,10 12,15 4,6 9,10 15,14 6,4 14,5 22,5 10,0 20,-1 30,-5 4,-14 12,-26 24,-34 -42,-4 -73,-14 -93,-31 -20,-18 -30,-46 -30,-86 0,-30 9,-55 27,-75 -3,-10 -5,-21 -5,-32 0,-14 3,-28 10,-41 15,0 27,2 39,7 11,5 23,13 38,23 19,-4 40,-7 64,-7 20,0 40,2 58,7 15,-11 27,-18 38,-23 11,-5 24,-7 38,-7 7,13 10,27 10,41 0,11 -1,22 -5,32 18,21 28,46 28,75 0,40 -10,69 -31,86 -20,17 -51,28 -93,32 18,12 27,28 27,49l0 86c50,-15 91,-45 122,-88 32,-43 48,-90 48,-143zm48 0l0 0c0,53 -13,101 -39,146 -26,45 -61,80 -106,106 -45,26 -93,39 -146,39 -53,0 -102,-13 -147,-39 -44,-26 -80,-61 -106,-106 -26,-45 -39,-93 -39,-146 0,-53 13,-102 39,-147 26,-44 62,-80 106,-106 45,-26 94,-39 147,-39 53,0 101,13 146,39 45,26 80,62 106,106 26,45 39,94 39,147z"/>
  </symbol>
</svg>